<svg id="Layer_1" data-name="Layer 1" xmlns="http://www.w3.org/2000/svg" viewBox="0 0 174.22 120.6"><defs><style>.cls-1{fill:#0ed5db;}.cls-2{fill:#00fff4;}.cls-3{fill:#0080f7;}</style></defs><title>logo</title><path class="cls-1" d="M106.17,31.27a37.43,37.43,0,0,0,14.73-1.93,105,105,0,0,0,13.76-5.79,122.47,122.47,0,0,1,14.1-6,38.5,38.5,0,0,1,15.73-2,27,27,0,0,1,4.07.76,15.34,15.34,0,0,1,2,.6l1.95.78a24.93,24.93,0,0,1,6.89,4.75,30.45,30.45,0,0,1,8,14.28,36.36,36.36,0,0,1,.82,4c.09.67.13,1.35.2,2a17.15,17.15,0,0,1,.12,2,41.67,41.67,0,0,1-.48,8.05A42.37,42.37,0,0,1,182.66,68c-5.69,9.32-13.94,15.51-18.41,23.73a78.82,78.82,0,0,0-5.67,13.41c-1.6,4.72-3.13,9.57-5.15,14.34a49.13,49.13,0,0,1-3.54,7.07,21,21,0,0,1-5.56,6.14,18.24,18.24,0,0,1-15.93,2.45,15.66,15.66,0,0,1-6.77-4.5,29.5,29.5,0,0,1-4.29-6.5c-1.17-2.26-2.21-4.54-3.44-6.7a23.45,23.45,0,0,0-4.51-5.94,22.56,22.56,0,0,1,5.27,5.45c1.48,2.07,2.76,4.27,4.12,6.36a30.77,30.77,0,0,0,4.51,5.71,13,13,0,0,0,5.94,3.29A14.84,14.84,0,0,0,142,129.55c3.41-2.79,5.44-7.2,7.11-11.79s3-9.4,4.51-14.25A83.26,83.26,0,0,1,159.26,89c5.14-9.65,13.54-16.07,18.25-24.07a36.69,36.69,0,0,0,4.75-13,37.2,37.2,0,0,0,.48-7,16.9,16.9,0,0,0-.09-1.74c-.06-.57-.08-1.15-.16-1.72-.2-1.14-.3-2.3-.61-3.41a24.93,24.93,0,0,0-6.19-11.92,20.52,20.52,0,0,0-5.35-3.94l-1.52-.7a14.2,14.2,0,0,0-1.59-.55,22.77,22.77,0,0,0-3.31-.78c-.56-.11-1.14-.1-1.71-.16s-1.14-.13-1.74-.11a34.85,34.85,0,0,0-3.53.15,46,46,0,0,0-7.08,1.29,124,124,0,0,0-14,4.91,98.18,98.18,0,0,1-14.5,4.7,46.15,46.15,0,0,1-7.58,1A31.39,31.39,0,0,1,106.17,31.27Z" transform="translate(-14.34 -15.39)"/><path class="cls-2" d="M171.52,34.2a21.73,21.73,0,0,1,2.95,5.68,18.12,18.12,0,0,1-.78,13.95A9.28,9.28,0,0,1,170,58a4.82,4.82,0,0,1-5.33-.35,6.16,6.16,0,0,1-1.67-3c-.93-3.09-1-6.61-3.12-9.05-1.85-2.16-4.78-2.94-7.42-4-3.56-1.41-6.82-5.66-5.18-9.59,1.55-3.73,6.27-4.85,9.91-5A17,17,0,0,1,171.52,34.2Z" transform="translate(-14.34 -15.39)"/><rect class="cls-3" x="37.61" y="18.55" width="4.5" height="5.65"/><path class="cls-3" d="M43.87,61a22.48,22.48,0,0,0,6.22.67h10V43.2a39.81,39.81,0,0,0-4-.35c-2-.11-3.8-.17-5.47-.17a26.52,26.52,0,0,0-6.8.67A5.43,5.43,0,0,0,40.41,46a12.61,12.61,0,0,0-1.07,5.9,13.56,13.56,0,0,0,1.15,6.34A5.56,5.56,0,0,0,43.87,61ZM46.2,49.66a2.1,2.1,0,0,1,1.43-.93,15.13,15.13,0,0,1,2.94-.21c.52,0,1.56,0,3.12.11v7.18H50.2a11.23,11.23,0,0,1-2.57-.22,2.2,2.2,0,0,1-1.39-1.06,5.19,5.19,0,0,1-.51-2.62A4.24,4.24,0,0,1,46.2,49.66Z" transform="translate(-14.34 -15.39)"/><rect class="cls-3" x="31.29" y="18.55" width="4.5" height="5.65"/><path class="cls-3" d="M81.45,55.7a19.61,19.61,0,0,0-1.21-7.21,10.13,10.13,0,0,0-3.52-4.69,9.33,9.33,0,0,0-5.54-1.64,35.09,35.09,0,0,0-6.4.86l.48,5.09h4.28a4.89,4.89,0,0,1,3.8,1.83q1.59,1.81,1.71,5.87H63.22v5.84H81.45Z" transform="translate(-14.34 -15.39)"/><path class="cls-3" d="M95,61.65h47.69V55.81h-9.45a5.17,5.17,0,0,1-1.3-3.53c0-2.58,1.21-3.87,3.65-3.87a15,15,0,0,1,5.69,1.71l.29-6.14a17,17,0,0,0-3.21-1,15.79,15.79,0,0,0-3.22-.41,12.39,12.39,0,0,0-3.93.73,8.64,8.64,0,0,0-3.92,2.82,9,9,0,0,0-1.75,5.94,17.51,17.51,0,0,0,.45,3.75h-9.75V43.05h-6.4V55.81H91.19V36.06h-6.4V61.65Z" transform="translate(-14.34 -15.39)"/><rect class="cls-3" x="99.51" y="49.24" width="4.5" height="5.65"/><rect class="cls-3" x="93.19" y="49.24" width="4.5" height="5.65"/><rect class="cls-3" x="8.74" y="59.32" width="5.77" height="5.99"/><path class="cls-3" d="M30.7,98.51a3.87,3.87,0,0,1-.54,1.9A4.28,4.28,0,0,1,28.49,102a5.54,5.54,0,0,1-2.77.65,6,6,0,0,1-2.74-.61,4.89,4.89,0,0,1-1.86-1.6,3.74,3.74,0,0,1-.65-2.07c0-.59.13-1.87.38-3.83s.48-3.69.7-5.21l-6-.33a93,93,0,0,0-1.22,10.12,8.16,8.16,0,0,0,1.45,4.65,10.11,10.11,0,0,0,4.11,3.44A13.89,13.89,0,0,0,26,108.52,12.56,12.56,0,0,0,32,107.16a9.49,9.49,0,0,0,3.8-3.49,8.72,8.72,0,0,0,1.26-4.49V80.69H30.7Z" transform="translate(-14.34 -15.39)"/><rect class="cls-3" x="61.94" y="55.86" width="5.77" height="5.99"/><path class="cls-3" d="M112.17,80.88q.3,3.77.3,5.73c0,.77,0,1.34,0,1.71l0,2v3.12h-2a2.26,2.26,0,0,1-1.23-.33,15,15,0,0,0,.3-3V82.55H103v7.59a3.68,3.68,0,0,1-.74,2.42,2.44,2.44,0,0,1-2,.89h-.4V82.55H93.5v10.9H82.41V80.69H76V93.45H48.11V73.7h-6.4V99.29h60.83a6.14,6.14,0,0,0,3.79-1.22,8.47,8.47,0,0,0,1.73.78,7.54,7.54,0,0,0,2.59.44h8.14V89q0-1.36-.93-8.33Z" transform="translate(-14.34 -15.39)"/><rect class="cls-3" x="109.18" y="61.51" width="6.4" height="22.39"/><path class="cls-3" d="M130.44,70.13l-3.91,1a1.75,1.75,0,0,1-.93-1.64,1.72,1.72,0,0,1,.48-1.22,1.66,1.66,0,0,1,1.27-.52,2.21,2.21,0,0,1,1.45.52l.56-2.79a6.2,6.2,0,0,0-3-.9,4.08,4.08,0,0,0-3,1.19,3.91,3.91,0,0,0-1.17,2.83,4.18,4.18,0,0,0,1.56,3.28l-1.63.4.44,2.12L131,72.77Z" transform="translate(-14.34 -15.39)"/></svg>