<svg id="Layer_1" data-name="Layer 1" xmlns="http://www.w3.org/2000/svg" xmlns:xlink="http://www.w3.org/1999/xlink" viewBox="0 0 927.94 748.12"><defs><style>.cls-1{fill:none;}.cls-2{clip-path:url(#clip-path);}.cls-3{fill:#efefef;}.cls-4{fill:#fff;}</style><clipPath id="clip-path" transform="translate(-76.03 -165.94)"><rect class="cls-1" width="1080" height="1080"/></clipPath></defs><title>logo</title><g class="cls-2"><path class="cls-3" d="M562.69,610.9l75.15-169.25c-21-56.56-54.48-119.88-108.8-177.55q-10.32-11-20.79-20.8L421.4,363.66A1054.3,1054.3,0,0,1,546.65,573.17q8.54,19,16,37.73" transform="translate(-76.03 -165.94)"/><path class="cls-4" d="M986.51,325.64C946.78,240.24,853.29,168,755,166c-51.58-1-92.91,17.19-110.26,25.58C631.38,198,579.68,222.9,511.21,313.84c-69.41,92.2-104,182.78-124.77,237.07-10.32,27-26.61,70.58-56.1,146.91-8.08,20.93-16.82,41.6-25.26,62.39l-3.36-.17c-39.61-70.56-56.78-132.62-65-173.47-10.19-50.4-42.45-210,31.94-263.89,26.77-19.39,58-18.28,61.93-18.08,54.16,2.69,86.38,52,90.85,59.06L508.25,243.3c-17.51-17.63-60.72-56.25-128.45-71a255.3,255.3,0,0,0-125.19,4.33c-28.92,8.24-54.49,23.81-78.33,41.56-27.63,20.55-49.31,44.59-65.23,71.69-21.74,37-29.24,73.6-32.67,110.49-16.88,181.19,61,367,114.13,444,15.63,22.65,41.77,53.34,78.9,64.74a118.57,118.57,0,0,0,44.76,4.55,113,113,0,0,0,43.65-12.1,126.82,126.82,0,0,0,34.45-28.2c37.84-45.16,116.83-271.78,165.55-373.9,31-65.05,92.53-193.93,178.16-194.63,40.28-.33,91,25.25,107.18,65.78,12.68,31.69,14,65.22,12.27,98.95-1.31,25.1-5.17,67.66-27.69,141.13a1044.72,1044.72,0,0,1-58.86,149.59c-19.53-47.28-35.66-86.09-46.82-112.86,0,0-21.38-51.33-86.22-205.74L562.69,610.9c39.33,111,55.74,149.76,55.74,149.76,27.25,64.31,44.47,92.86,59.65,111.57,42,51.78,117.68,53.77,164.61,14.38,28.39-23.82,48.07-54,64.48-86.62,37-73.36,52.58-135.29,55.21-146.82,38.65-169.85,58-254.77,24.13-327.53" transform="translate(-76.03 -165.94)"/></g></svg>