<svg id="Layer_1" data-name="Layer 1" xmlns="http://www.w3.org/2000/svg" xmlns:xlink="http://www.w3.org/1999/xlink" viewBox="0 0 444.16 358.09"><defs><style>.cls-1{fill:url(#linear-gradient);}.cls-2{fill:url(#linear-gradient-2);}.cls-3{fill:#fff;}</style><linearGradient id="linear-gradient" x1="317.47" y1="226.03" x2="247" y2="174.59" gradientUnits="userSpaceOnUse"><stop offset="0.01" stop-opacity="0.3"/><stop offset="0.12" stop-color="#292929" stop-opacity="0.41"/><stop offset="0.3" stop-color="#696969" stop-opacity="0.59"/><stop offset="0.48" stop-color="#9f9f9f" stop-opacity="0.74"/><stop offset="0.64" stop-color="#c8c8c8" stop-opacity="0.85"/><stop offset="0.79" stop-color="#e6e6e6" stop-opacity="0.93"/><stop offset="0.91" stop-color="#f9f9f9" stop-opacity="0.98"/><stop offset="1" stop-color="#fff"/></linearGradient><linearGradient id="linear-gradient-2" x1="233.1" y1="229.46" x2="310.77" y2="267.01" xlink:href="#linear-gradient"/></defs><title>logo</title><path class="cls-1" d="M283.89,157.65c-4.53,5.19-9.28,11-14.21,17.57a375.26,375.26,0,0,0-28.39,43.88q-7.22-10.42-14.59-20l41.57-57.61q5,4.71,10,10C280.17,153.47,282.05,155.55,283.89,157.65Z" transform="translate(-61.38 -104.42)"/><path class="cls-2" d="M330.3,236.39q-18,40.5-36,81-3.58-8.94-7.67-18c-1.58-3.51-3.18-7-4.8-10.38,3.94-9.28,7.67-17.74,11.1-24.92,6.5-13.61,15.77-33.05,27.58-50.66C324.29,221.23,327.52,228.93,330.3,236.39Z" transform="translate(-61.38 -104.42)"/><path class="cls-3" d="M320.53,213.39C308.72,231,299.45,250.44,293,264.05c-3.43,7.18-7.16,15.64-11.1,24.92a501.31,501.31,0,0,0-40.56-69.87,375.26,375.26,0,0,1,28.39-43.88c4.93-6.55,9.68-12.38,14.21-17.57A245.62,245.62,0,0,1,320.53,213.39Z" transform="translate(-61.38 -104.42)"/><path class="cls-3" d="M485.64,337.64c-1.26,5.52-8.74,35.16-26.43,70.27-7.85,15.6-17.27,30.06-30.86,41.46-22.47,18.86-58.69,17.9-78.8-6.88-7.26-9-15.5-22.62-28.55-53.41,0,0-7.85-18.54-26.68-71.68q18-40.5,36-81c31,73.91,41.27,98.48,41.27,98.48,5.34,12.81,13.06,31.39,22.41,54a499.75,499.75,0,0,0,28.17-71.6c10.77-35.17,12.63-55.54,13.25-67.56.85-16.14.2-32.19-5.87-47.36-7.76-19.4-32-31.64-51.3-31.48-23.08.19-42.49,19.82-57.7,42.5C308.72,231,299.45,250.44,293,264.05c-3.43,7.18-7.16,15.64-11.1,24.92-22.9,53.94-52.69,135.6-68.14,154a60.61,60.61,0,0,1-16.49,13.49,53.85,53.85,0,0,1-20.89,5.79,56.85,56.85,0,0,1-21.43-2.17c-17.77-5.46-30.28-20.15-37.76-31C91.72,392.31,54.42,303.35,62.51,216.63c1.64-17.66,5.22-35.17,15.64-52.89a115.92,115.92,0,0,1,31.22-34.32c11.41-8.49,23.65-15.94,37.49-19.88a121.9,121.9,0,0,1,59.92-2.08,124.75,124.75,0,0,1,61.49,34L226.7,199.06c-2.14-3.38-17.57-27-43.49-28.27-1.88-.09-16.83-.63-29.64,8.65C118,205.24,133.4,281.63,138.28,305.76a284,284,0,0,0,31.13,83l1.61.08c4-9.95,8.22-19.85,12.09-29.86,14.11-36.54,21.91-57.4,26.85-70.32,6.57-17.2,16-42,31.33-69.59a375.26,375.26,0,0,1,28.39-43.88c4.93-6.55,9.68-12.38,14.21-17.57,25.59-29.35,44.28-38.34,49.71-41,8.3-4,28.09-12.74,52.77-12.24,47.05,1,91.8,35.54,110.82,76.42C513.39,215.69,504.14,256.34,485.64,337.64Z" transform="translate(-61.38 -104.42)"/></svg>