<svg id="Layer_1" data-name="Layer 1" xmlns="http://www.w3.org/2000/svg" xmlns:xlink="http://www.w3.org/1999/xlink" viewBox="0 0 15.73 12.68"><defs><style>.cls-1{fill:url(#linear-gradient);}.cls-2{fill:url(#linear-gradient-2);}.cls-3{fill:#fff;}</style><linearGradient id="linear-gradient" x1="9.2" y1="5.97" x2="6.71" y2="4.15" gradientUnits="userSpaceOnUse"><stop offset="0.01" stop-opacity="0.3"/><stop offset="0.12" stop-color="#292929" stop-opacity="0.41"/><stop offset="0.3" stop-color="#696969" stop-opacity="0.59"/><stop offset="0.48" stop-color="#9f9f9f" stop-opacity="0.74"/><stop offset="0.64" stop-color="#c8c8c8" stop-opacity="0.85"/><stop offset="0.79" stop-color="#e6e6e6" stop-opacity="0.93"/><stop offset="0.91" stop-color="#f9f9f9" stop-opacity="0.98"/><stop offset="1" stop-color="#fff"/></linearGradient><linearGradient id="linear-gradient-2" x1="6.22" y1="6.09" x2="8.97" y2="7.42" xlink:href="#linear-gradient"/></defs><title>favicon</title><path class="cls-1" d="M8,3.55c-.17.18-.33.39-.51.62a12.2,12.2,0,0,0-1,1.55C6.34,5.47,6.16,5.24,6,5L7.46,3c.12.11.24.23.35.35Z" transform="translate(-0.14 -1.66)"/><path class="cls-2" d="M9.66,6.33c-.43,1-.85,1.92-1.28,2.87-.08-.21-.17-.42-.27-.64S8,8.32,7.94,8.2c.14-.33.27-.63.4-.89a13.7,13.7,0,0,1,1-1.79C9.45,5.8,9.56,6.07,9.66,6.33Z" transform="translate(-0.14 -1.66)"/><path class="cls-3" d="M9.31,5.52a13.7,13.7,0,0,0-1,1.79c-.13.26-.26.56-.4.89A17.17,17.17,0,0,0,6.51,5.72a12.2,12.2,0,0,1,1-1.55c.18-.23.34-.44.51-.62A8.64,8.64,0,0,1,9.31,5.52Z" transform="translate(-0.14 -1.66)"/><path class="cls-3" d="M15.16,9.92a12.48,12.48,0,0,1-.94,2.49,4.47,4.47,0,0,1-1.09,1.46,2,2,0,0,1-2.79-.24,7.65,7.65,0,0,1-1-1.89s-.28-.66-.95-2.54c.43-.95.85-1.91,1.28-2.87l1.46,3.49.79,1.91a17.27,17.27,0,0,0,1-2.53,9.53,9.53,0,0,0,.47-2.39,3.82,3.82,0,0,0-.21-1.68A2,2,0,0,0,11.36,4a2.83,2.83,0,0,0-2,1.51,13.7,13.7,0,0,0-1,1.79c-.13.26-.26.56-.4.89-.81,1.9-1.86,4.8-2.41,5.45a2.2,2.2,0,0,1-.58.48,2,2,0,0,1-.74.2,2.08,2.08,0,0,1-.76-.07,2.78,2.78,0,0,1-1.34-1.1A12.74,12.74,0,0,1,.18,5.63,4.21,4.21,0,0,1,.73,3.76,4,4,0,0,1,1.84,2.55a3.93,3.93,0,0,1,1.32-.71,4.33,4.33,0,0,1,2.12-.07A4.38,4.38,0,0,1,7.46,3L6,5A2.13,2.13,0,0,0,4.45,4a1.77,1.77,0,0,0-1.05.31c-1.26.91-.71,3.62-.54,4.47A10.14,10.14,0,0,0,4,11.73H4c.14-.35.29-.7.43-1.06.5-1.29.77-2,1-2.49A18.92,18.92,0,0,1,6.51,5.72a12.2,12.2,0,0,1,1-1.55c.18-.23.34-.44.51-.62A5.49,5.49,0,0,1,9.78,2.09a4.12,4.12,0,0,1,1.86-.43,4.73,4.73,0,0,1,3.93,2.71C16.14,5.6,15.81,7,15.16,9.92Z" transform="translate(-0.14 -1.66)"/></svg>